<svg xmlns="http://www.w3.org/2000/svg" xmlns:xlink="http://www.w3.org/1999/xlink" viewBox="0 0 257.71 39.01"><defs><style>.a,.b{fill:none;}.a{clip-rule:evenodd;}.c{clip-path:url(#a);}.d{clip-path:url(#b);}.e{fill:#2d2d2b;}.f{clip-path:url(#c);}.g{clip-path:url(#e);}.h{clip-path:url(#g);}.i{clip-path:url(#i);}.j{clip-path:url(#k);}.k{clip-path:url(#m);}.l{clip-path:url(#o);}.m{clip-path:url(#q);}.n{clip-path:url(#s);}.o{clip-path:url(#u);}.p{clip-path:url(#w);}.q{isolation:isolate;}.r{clip-path:url(#y);}.s{clip-path:url(#z);}.t{clip-path:url(#ab);}.u{clip-path:url(#ad);}</style><clipPath id="a" transform="translate(-20.02 -18.14)"><path class="a" d="M47.37,43.05a1.1,1.1,0,0,1-.92-.39c0-.18-.1-2.79-.12-5.4a39.15,39.15,0,0,1,.13-5.41,39.41,39.41,0,0,1,3.2-4.32,13,13,0,0,0-7,3.87,4.06,4.06,0,0,0-2.23-.48,3.17,3.17,0,0,1,1.4,2.43v9.12a5.54,5.54,0,0,1-2.7,1.34,1.67,1.67,0,0,1-1.36-.69,1.72,1.72,0,0,1-.23-.4V31.47a1,1,0,0,1-.56.19.76.76,0,0,1-.68-.5,2.93,2.93,0,0,1-.22-1.29c0-2.08,2.35-3.46,2.35-3.46-3,.8-5.75,2.34-9.44,6.56s-3,7.71-3,7.71a18.14,18.14,0,0,1,3.47-4.93c1.16-1.2,2-1.6,2.62-1.6a.92.92,0,0,1,1,.93v8.57a.91.91,0,0,1-1.05,1,3.07,3.07,0,0,1-.83-.15c2.52,3.64,8.52,4.15,8.52,4.15l2.64-2.81.06,0L44.8,48a18.22,18.22,0,0,0,6.54-7.49c-2,2.09-3.22,2.58-4,2.57"/></clipPath><clipPath id="b" transform="translate(-20.02 -18.14)"><rect class="b" x="-263.06" y="-222.79" width="590.99" height="393.99"/></clipPath><clipPath id="c" transform="translate(-20.02 -18.14)"><path class="a" d="M39.43,19.94a17.47,17.47,0,0,1,12.45,5.18,17.79,17.79,0,0,1,0,25,17.56,17.56,0,0,1-24.91,0,17.79,17.79,0,0,1,0-25,17.47,17.47,0,0,1,12.46-5.18m0-.82A18.52,18.52,0,1,0,57.84,37.64,18.46,18.46,0,0,0,39.43,19.12"/></clipPath><clipPath id="e" transform="translate(-20.02 -18.14)"><path class="a" d="M75.15,44.47c-1,0-1.94,0-2.72-.08a12.75,12.75,0,0,1-2-.28A5.12,5.12,0,0,1,69,43.56a2.82,2.82,0,0,1-.89-.86,3.73,3.73,0,0,1-.47-1.24,9.06,9.06,0,0,1-.13-1.67V31.55h3.76v7c0,.44,0,.81,0,1.12a2.78,2.78,0,0,0,.18.8,1.29,1.29,0,0,0,.41.53,1.9,1.9,0,0,0,.7.32,5,5,0,0,0,1.07.15c.43,0,.93,0,1.52,0h.32c.59,0,1.09,0,1.52,0a6.71,6.71,0,0,0,1.07-.15,1.9,1.9,0,0,0,.7-.32,1.43,1.43,0,0,0,.41-.53,2.86,2.86,0,0,0,.18-.8c0-.32,0-.69,0-1.12v-7H83.2v8.24a10.29,10.29,0,0,1-.12,1.67,3.51,3.51,0,0,1-.46,1.24,2.78,2.78,0,0,1-.88.86,4.88,4.88,0,0,1-1.41.55,12.59,12.59,0,0,1-2,.28c-.79.06-1.71.08-2.75.08Z"/></clipPath><clipPath id="g" transform="translate(-20.02 -18.14)"><polygon class="a" points="102.57 44.33 96.94 44.33 89.53 34.77 89.46 34.77 89.46 44.33 85.77 44.33 85.77 31.55 91.49 31.55 98.81 41.12 98.88 41.12 98.88 31.55 102.57 31.55 102.57 44.33"/></clipPath><clipPath id="i" transform="translate(-20.02 -18.14)"><path class="a" d="M120.3,44.33h-3.72v-1a8.72,8.72,0,0,0,0-1,1.93,1.93,0,0,0-.19-.69,1.26,1.26,0,0,0-.41-.45,2.18,2.18,0,0,0-.7-.26,6.78,6.78,0,0,0-1.06-.12q-.63,0-1.5,0H108.9v3.55h-3.73V31.55h9.93a14.1,14.1,0,0,1,2.58.19,3.64,3.64,0,0,1,1.59.65,2.29,2.29,0,0,1,.8,1.2,6.47,6.47,0,0,1,.23,1.85v.45a6.29,6.29,0,0,1-.12,1.31,3.08,3.08,0,0,1-.38,1,2.32,2.32,0,0,1-.69.67,3.15,3.15,0,0,1-1,.4v.08a5,5,0,0,1,1.1.28,1.52,1.52,0,0,1,.68.5,2.08,2.08,0,0,1,.33.88,7.5,7.5,0,0,1,.1,1.38ZM113.59,38c.65,0,1.17,0,1.55-.06a2.15,2.15,0,0,0,.88-.25.88.88,0,0,0,.39-.52,3.58,3.58,0,0,0,.09-.89v-.22a3.55,3.55,0,0,0-.09-.88.83.83,0,0,0-.39-.51,2.27,2.27,0,0,0-.89-.24c-.38,0-.89-.06-1.54-.06H108.9V38Z"/></clipPath><clipPath id="k" transform="translate(-20.02 -18.14)"><polygon class="a" points="136.66 44.33 122.75 44.33 122.75 31.55 136.45 31.55 136.45 34.37 126.48 34.37 126.48 36.55 135.92 36.55 135.92 39.22 126.48 39.22 126.48 41.42 136.66 41.42 136.66 44.33"/></clipPath><clipPath id="m" transform="translate(-20.02 -18.14)"><path class="a" d="M155.89,44.33h-4.07L150.65,42h-8l-1.16,2.3h-4l6.88-12.78H149Zm-6.59-5-2.61-5.13h-.1L144,39.36Z"/></clipPath><clipPath id="o" transform="translate(-20.02 -18.14)"><polygon class="a" points="169.59 44.33 157.26 44.33 157.26 31.55 161.03 31.55 161.03 41.35 169.59 41.35 169.59 44.33"/></clipPath><clipPath id="q" transform="translate(-20.02 -18.14)"><polygon class="a" points="193.93 44.46 179.56 44.46 179.56 31.29 193.7 31.29 193.7 34.2 183.41 34.2 183.41 36.44 193.16 36.44 193.16 39.19 183.41 39.19 183.41 41.46 193.93 41.46 193.93 44.46"/></clipPath><clipPath id="s" transform="translate(-20.02 -18.14)"><polygon class="a" points="213.45 44.46 207.64 44.46 199.99 34.61 199.91 34.61 199.91 44.46 196.1 44.46 196.1 31.29 202 31.29 209.56 41.15 209.64 41.15 209.64 31.29 213.45 31.29 213.45 44.46"/></clipPath><clipPath id="u" transform="translate(-20.02 -18.14)"><path class="a" d="M224.69,44.73c-1.23,0-2.28,0-3.17-.09a11.64,11.64,0,0,1-2.26-.34,4.38,4.38,0,0,1-1.52-.71,2.89,2.89,0,0,1-.9-1.18,5.61,5.61,0,0,1-.43-1.76,21.54,21.54,0,0,1-.12-2.45v-.38a21.92,21.92,0,0,1,.12-2.47,6.19,6.19,0,0,1,.44-1.77,3,3,0,0,1,.91-1.17,4.12,4.12,0,0,1,1.52-.7,11.64,11.64,0,0,1,2.26-.34c.89-.05,1.94-.08,3.15-.08h.58c1,0,1.91,0,2.68.06a15.38,15.38,0,0,1,2,.24,5,5,0,0,1,1.36.48,2.44,2.44,0,0,1,.85.77,3,3,0,0,1,.43,1.12,8.44,8.44,0,0,1,.12,1.52V36h-3.74v-.16a1.84,1.84,0,0,0-.14-.76,1,1,0,0,0-.55-.49,3.7,3.7,0,0,0-1.15-.26c-.5,0-1.15-.08-1.95-.08h-.33c-.73,0-1.35,0-1.87,0a7.07,7.07,0,0,0-1.3.16,2.31,2.31,0,0,0-.82.37,1.38,1.38,0,0,0-.45.64,3.7,3.7,0,0,0-.19,1c0,.4,0,.88,0,1.44v.24c0,.55,0,1,0,1.4a3.7,3.7,0,0,0,.19,1,1.43,1.43,0,0,0,.45.64,2.5,2.5,0,0,0,.82.36,7,7,0,0,0,1.3.17c.52,0,1.14,0,1.87,0h.33c.59,0,1.11,0,1.54,0s.79-.06,1.09-.1a2.84,2.84,0,0,0,.7-.2,1,1,0,0,0,.41-.32,1.13,1.13,0,0,0,.2-.46,3.54,3.54,0,0,0,0-.6v-.37h-5.06V37.08h8.76V40a9.25,9.25,0,0,1-.13,1.68,3.43,3.43,0,0,1-.44,1.24,2.78,2.78,0,0,1-.87.87,4.41,4.41,0,0,1-1.38.55,12.38,12.38,0,0,1-2,.29c-.78.06-1.69.08-2.73.08Z"/></clipPath><clipPath id="w" transform="translate(-20.02 -18.14)"><rect class="b" x="136.05" y="1" width="183.8" height="43.73"/></clipPath><clipPath id="y" transform="translate(-20.02 -18.14)"><rect class="b" x="235.34" y="31.53" width="41.57" height="13.2"/></clipPath><clipPath id="z" transform="translate(-20.02 -18.14)"><polygon class="a" points="259.4 44.6 253.63 44.6 246.04 34.84 245.96 34.84 245.96 44.6 242.18 44.6 242.18 31.56 248.04 31.56 255.54 41.32 255.61 41.32 255.61 31.56 259.4 31.56 259.4 44.6"/></clipPath><clipPath id="ab" transform="translate(-20.02 -18.14)"><polygon class="a" points="276.75 44.6 262.51 44.6 262.51 31.56 276.52 31.56 276.52 34.44 266.33 34.44 266.33 36.66 275.98 36.66 275.98 39.38 266.33 39.38 266.33 41.63 276.75 41.63 276.75 44.6"/></clipPath><clipPath id="ad" transform="translate(-20.02 -18.14)"><rect class="b" x="235.41" y="31.56" width="3.93" height="13.04"/></clipPath></defs><title>Unreal_Engine_Horiz_Black</title><g class="c"><g class="d"><rect class="e" x="4.92" y="7.29" width="27.38" height="24.23"/></g></g><g class="f"><g class="d"><rect class="e" width="38.81" height="39.01"/></g></g><g class="g"><g class="d"><rect class="e" x="46.49" y="12.42" width="17.67" height="14.9"/></g></g><g class="h"><g class="d"><rect class="e" x="64.76" y="12.42" width="18.77" height="14.75"/></g></g><g class="i"><g class="d"><rect class="e" x="84.17" y="12.42" width="17.09" height="14.75"/></g></g><g class="j"><g class="d"><rect class="e" x="101.74" y="12.42" width="15.88" height="14.75"/></g></g><g class="k"><g class="d"><rect class="e" x="116.48" y="12.42" width="20.38" height="14.75"/></g></g><g class="l"><g class="d"><rect class="e" x="136.25" y="12.42" width="14.3" height="14.75"/></g></g><g class="m"><g class="d"><rect class="e" x="158.55" y="12.16" width="16.34" height="15.14"/></g></g><g class="n"><g class="d"><rect class="e" x="175.09" y="12.16" width="19.32" height="15.14"/></g></g><g class="o"><g class="d"><rect class="e" x="195.29" y="12.16" width="18.51" height="15.42"/></g></g><g class="p"><g class="d"><g class="q"><g class="r"><g class="s"><g class="p"><rect class="e" x="221.18" y="12.44" width="19.18" height="15.01"/></g></g><g class="t"><g class="p"><rect class="e" x="241.51" y="12.44" width="16.2" height="15.01"/></g></g><g class="u"><g class="p"><rect class="e" x="214.4" y="12.44" width="5.9" height="15.01"/></g></g></g></g></g></g></svg>